<?xml version="1.0" encoding="utf-8"?>
<svg version="1.1" id="Layer_1" xmlns="http://www.w3.org/2000/svg" xmlns:xlink="http://www.w3.org/1999/xlink" x="0px" y="0px"
	 viewBox="1316 -1059 4167 4167" style="enable-background:new 1316 -1059 4167 4167;" xml:space="preserve">
<style type="text/css">
	.st0{fill:#000000;}
</style>
<g transform="translate(0.000000,4167.000000) scale(0.100000,-0.100000)">
	<path class="st0" d="M30555,51267c-1034.1-3193.7-1956.8-6120-4337-13768.8c-3574.8-11484.4-5045.7-16064.3-6425.3-20013.6
		c-1326.1-3795.4-2259.9-5979.6-2770.3-6476.6l-111.4-109.2l4118.6,2.2c3195.9,0,4109.7,6.7,4076.3,26.7
		c-249.6,158.2-332.1,430.1-332.1,1107.7c0,430.1,22.3,719.9,98.1,1281.5c485.9,3621.6,2632.1,11192.4,6249.2,22041.7
		c1054.2,3164.7,2854.9,8406.6,2879.5,8384.3c11.1-13.4,655.2-1852,1145.5-3280.6c1092.1-3167,2295.5-6786.3,3280.6-9861.9
		c3144.7-9810.7,4785-16175.8,4785-18567.2c0-599.5-60.2-869.2-238.5-1038.6l-95.8-95.8h4100.8c2391.4,0,4100.8,8.9,4100.8,20.1
		s-13.4,24.5-31.2,31.2c-57.9,22.3-236.2,298.6-403.4,621.8c-1577.9,3057.8-6082.1,16574.7-13044.5,39153.5l-374.4,1214.6
		l-3222.7,6.7l-3224.9,4.5L30555,51267z"/>
</g>
</svg>
